<svg width="600" height="400" viewBox="0 0 600 400" fill="none" xmlns="http://www.w3.org/2000/svg">
  <rect width="600" height="400" rx="8" fill="white" fill-opacity="0.1"/>
  <rect x="150" y="100" width="300" height="200" rx="8" fill="white"/>
  <rect x="200" y="150" width="80" height="80" rx="4" fill="#003087"/>
  <path d="M215 165H225V175H215V165Z" fill="white"/>
  <path d="M227 165H237V175H227V165Z" fill="white"/>
  <path d="M239 165H249V175H239V165Z" fill="white"/>
  <path d="M215 177H225V187H215V177Z" fill="white"/>
  <path d="M239 177H249V187H239V177Z" fill="white"/>
  <path d="M215 189H225V199H215V189Z" fill="white"/>
  <path d="M227 189H237V199H227V189Z" fill="white"/>
  <path d="M239 189H249V199H239V189Z" fill="white"/>
  <rect x="320" y="150" width="80" height="20" rx="4" fill="#003087"/>
  <rect x="320" y="180" width="60" height="10" rx="2" fill="#E0E0E0"/>
  <rect x="320" y="200" width="80" height="10" rx="2" fill="#E0E0E0"/>
  <rect x="320" y="220" width="70" height="10" rx="2" fill="#E0E0E0"/>
  <circle cx="200" cy="270" r="15" fill="#009CDE"/>
  <circle cx="240" cy="270" r="15" fill="#009CDE"/>
  <circle cx="280" cy="270" r="15" fill="#009CDE"/>
  <path d="M195 270L200 275L205 265" stroke="white" stroke-width="2"/>
  <path d="M235 270L240 275L245 265" stroke="white" stroke-width="2"/>
  <path d="M275 270L280 275L285 265" stroke="white" stroke-width="2"/>
</svg>