<svg width="200" height="50" viewBox="0 0 200 50" fill="none" xmlns="http://www.w3.org/2000/svg">
  <rect width="50" height="50" rx="8" fill="#003087"/>
  <path d="M15 15H22V22H15V15Z" fill="white"/>
  <path d="M24 15H31V22H24V15Z" fill="white"/>
  <path d="M33 15H40V22H33V15Z" fill="white"/>
  <path d="M15 24H22V31H15V24Z" fill="white"/>
  <path d="M33 24H40V31H33V24Z" fill="white"/>
  <path d="M15 33H22V40H15V33Z" fill="white"/>
  <path d="M24 33H31V40H24V33Z" fill="white"/>
  <path d="M33 33H40V40H33V33Z" fill="white"/>
  <path d="M60 20H65.5C67.5 20 69 20.5 70 21.5C71 22.5 71.5 23.8333 71.5 25.5C71.5 27.1667 71 28.5 70 29.5C69 30.5 67.5 31 65.5 31H60V20ZM65.5 28.5C66.3333 28.5 67 28.25 67.5 27.75C68 27.25 68.25 26.5 68.25 25.5C68.25 24.5 68 23.75 67.5 23.25C67 22.75 66.3333 22.5 65.5 22.5H63.25V28.5H65.5Z" fill="#003087"/>
  <path d="M73 20H76.25V31H73V20Z" fill="#003087"/>
  <path d="M86.25 20H89.5V31H86.75L82.25 25V31H79V20H81.75L86.25 26V20Z" fill="#003087"/>
  <path d="M91.5 20H94.75V28.5H100V31H91.5V20Z" fill="#003087"/>
  <path d="M101.5 20H104.75V31H101.5V20Z" fill="#003087"/>
  <path d="M106.5 20H109.75V28.5H115V31H106.5V20Z" fill="#003087"/>
  <path d="M116.5 20H123.75C125.083 20 126.167 20.3333 127 21C127.833 21.6667 128.25 22.5833 128.25 23.75C128.25 24.9167 127.833 25.8333 127 26.5C126.167 27.1667 125.083 27.5 123.75 27.5H119.75V31H116.5V20ZM123.25 25C123.75 25 124.167 24.8333 124.5 24.5C124.833 24.1667 125 23.75 125 23.25C125 22.75 124.833 22.3333 124.5 22C124.167 21.6667 123.75 21.5 123.25 21.5H119.75V25H123.25Z" fill="#003087"/>
  <path d="M129.75 20H133V31H129.75V20Z" fill="#003087"/>
  <path d="M134.75 20H138V28.5H143.25V31H134.75V20Z" fill="#003087"/>
  <path d="M144.75 20H152.5C153.833 20 154.917 20.3333 155.75 21C156.583 21.6667 157 22.5833 157 23.75C157 24.5833 156.75 25.25 156.25 25.75C155.75 26.25 155.167 26.5833 154.5 26.75L157.5 31H153.75L151.25 27H148V31H144.75V20ZM152 24.5C152.5 24.5 152.917 24.3333 153.25 24C153.583 23.6667 153.75 23.25 153.75 22.75C153.75 22.25 153.583 21.8333 153.25 21.5C152.917 21.1667 152.5 21 152 21H148V24.5H152Z" fill="#003087"/>
  <path d="M166.75 20H170V31H167.25L162.75 25V31H159.5V20H162.25L166.75 26V20Z" fill="#003087"/>
  <path d="M171.75 20H175V28.5H180.25V31H171.75V20Z" fill="#003087"/>
  <path d="M181.75 20H185V31H181.75V20Z" fill="#003087"/>
  <path d="M186.75 20H190V28.5H195.25V31H186.75V20Z" fill="#003087"/>
</svg>